HIERARCHY
ROOT SpineBase
{
  OFFSET 0.000000 0.000000 0.000000
  CHANNELS 6 Xposition Yposition Zposition Zrotation Xrotation Yrotation
  JOINT SpineMid
  {
    OFFSET -0.000000 29.102470 0.000000
    CHANNELS 3 Zrotation Xrotation Yrotation
    JOINT SpineShoulder
    {
      OFFSET -0.045050 21.575500 -0.719583
      CHANNELS 3 Zrotation Xrotation Yrotation
      JOINT Neck
      {
        OFFSET -0.017477 7.130624 -0.538925
        CHANNELS 3 Zrotation Xrotation Yrotation
        JOINT Head
        {
          OFFSET -2.395513 13.264557 -0.449120
          CHANNELS 3 Zrotation Xrotation Yrotation
          End Site
          {
            OFFSET 0 0 0
          }
        }
      }
      JOINT ShoulderLeft
      {
        OFFSET -15.409835 -4.864466 4.299502
        CHANNELS 3 Zrotation Xrotation Yrotation
        JOINT ElbowLeft
        {
          OFFSET -1.458544 -26.192779 3.059840
          CHANNELS 3 Zrotation Xrotation Yrotation
          JOINT WristLeft
          {
            OFFSET 0.942104 -21.634782 -3.426335
            CHANNELS 3 Zrotation Xrotation Yrotation
            JOINT HandLeft
            {
              OFFSET 0.338878 -4.717084 -0.389377
              CHANNELS 3 Zrotation Xrotation Yrotation
              JOINT HandTipLeft
              {
                OFFSET 1.006050 -6.630950 -1.069578
                CHANNELS 3 Zrotation Xrotation Yrotation
                End Site
                {
                  OFFSET 0 0 0
                }
              }
              JOINT ThumbLeft
              {
                OFFSET -3.199886 -0.709594 -1.438603
                CHANNELS 3 Zrotation Xrotation Yrotation
                End Site
                {
                  OFFSET 0 0 0
                }
              }
            }
          }
        }
      }
      JOINT ShoulderRight
      {
        OFFSET 13.367098 -3.917155 -9.891521
        CHANNELS 3 Zrotation Xrotation Yrotation
        JOINT ElbowRight
        {
          OFFSET 5.010468 -22.359437 -0.708029
          CHANNELS 3 Zrotation Xrotation Yrotation
          JOINT WristRight
          {
            OFFSET 0.328491 -18.995726 -5.913818
            CHANNELS 3 Zrotation Xrotation Yrotation
            JOINT HandRight
            {
              OFFSET -1.164424 -7.460596 0.256713
              CHANNELS 3 Zrotation Xrotation Yrotation
              JOINT HandTipRight
              {
                OFFSET 0.664618 -6.466617 -0.770603
                CHANNELS 3 Zrotation Xrotation Yrotation
                End Site
                {
                  OFFSET 0 0 0
                }
              }
              JOINT ThumbRight
              {
                OFFSET -2.510210 0.134535 -1.274343
                CHANNELS 3 Zrotation Xrotation Yrotation
                End Site
                {
                  OFFSET 0 0 0
                }
              }
            }
          }
        }
      }
    }
  }
  JOINT HipLeft
  {
    OFFSET -5.716472 0.671500 -0.925942
    CHANNELS 3 Zrotation Xrotation Yrotation
    JOINT KneeLeft
    {
      OFFSET 5.730468 -27.313475 7.211133
      CHANNELS 3 Zrotation Xrotation Yrotation
      JOINT AnkleLeft
      {
        OFFSET 4.610763 -31.976728 7.975111
        CHANNELS 3 Zrotation Xrotation Yrotation
        JOINT FootLeft
        {
          OFFSET -1.767314 -4.300298 -8.013378
          CHANNELS 3 Zrotation Xrotation Yrotation
          End Site
          {
            OFFSET 0 0 0
          }
        }
      }
    }
  }
  JOINT HipRight
  {
    OFFSET 5.658076 0.796411 -5.857091
    CHANNELS 3 Zrotation Xrotation Yrotation
    JOINT KneeRight
    {
      OFFSET 9.385684 -27.182369 5.713540
      CHANNELS 3 Zrotation Xrotation Yrotation
      JOINT AnkleRight
      {
        OFFSET 5.458845 -30.544029 7.748830
        CHANNELS 3 Zrotation Xrotation Yrotation
        JOINT FootRight
        {
          OFFSET -3.379734 -3.050250 -10.182650
          CHANNELS 3 Zrotation Xrotation Yrotation
          End Site
          {
            OFFSET 0 0 0
          }
        }
      }
    }
  }
}
MOTION
Frames: 5
Frame Time: 0.033333
8.774442 64.554156 325.777871 -2.557507 3.585570 22.744761 -0.463876 0.339801 -22.774060 -0.122301 -0.038518 -0.145099 8.376640 3.273492 1.774086 0.000000 0.000000 0.000000 -0.240135 0.829714 -0.405549 -3.276948 -2.775734 1.518099 2.119374 1.098649 -0.476328 -2.892264 -4.324099 0.047422 0.000000 0.000000 0.000000 0.000000 0.000000 0.000000 43.989909 -16.023617 3.258326 -62.166401 -27.700471 13.624449 1.118801 36.502691 -0.993369 13.590997 37.929638 12.361337 0.000000 0.000000 0.000000 0.000000 0.000000 0.000000 -8.922264 6.227479 -24.803074 13.408336 -14.294436 1.565378 -6.471067 19.378749 8.998895 0.000000 0.000000 0.000000 -2.952954 -0.275021 -23.123094 -1.243158 -11.373363 -3.569573 5.397109 9.600581 4.451597 0.000000 0.000000 0.000000
8.808967 64.531579 325.869881 -2.732218 3.442098 23.728434 -0.490568 0.310429 -23.763129 -0.129247 -0.103712 -0.155903 8.591983 3.590427 1.773621 0.000000 0.000000 0.000000 -0.288699 1.212958 -0.412367 -3.615109 -5.031139 1.382450 1.440836 1.093366 -0.554996 -2.746166 -4.577118 -0.093099 0.000000 0.000000 0.000000 0.000000 0.000000 0.000000 43.333360 -14.582677 2.822073 -62.408761 -28.937091 12.336187 -2.901893 53.937953 3.540536 16.697763 19.238830 14.827294 0.000000 0.000000 0.000000 0.000000 0.000000 0.000000 -9.003668 6.468949 -25.886536 13.924957 -13.760757 1.797869 -6.976430 18.736882 9.742661 0.000000 0.000000 0.000000 -2.649621 -0.297355 -24.093488 -1.480989 -11.163256 -3.574820 5.317534 9.300543 5.317840 0.000000 0.000000 0.000000
8.872026 64.494185 325.975622 -2.861261 3.257410 24.749160 -0.488706 0.304851 -24.788528 -0.127730 -0.152429 -0.162679 8.527577 3.924213 1.764302 0.000000 0.000000 0.000000 -0.388371 1.566685 -0.421929 -3.965672 -7.022912 1.246289 0.980149 -3.198317 -1.204307 -2.537121 8.483971 2.644376 0.000000 0.000000 0.000000 0.000000 0.000000 0.000000 42.438967 -13.543445 2.440268 -62.526172 -29.871679 11.415077 -13.779062 71.692104 15.378018 24.302555 -5.823588 18.132820 0.000000 0.000000 0.000000 0.000000 0.000000 0.000000 -9.229629 6.856093 -27.028367 14.615389 -13.109673 2.097381 -7.340297 18.080797 10.149717 0.000000 0.000000 0.000000 -2.484747 -0.317376 -25.157155 -1.620691 -10.829555 -3.511499 5.302355 9.020897 5.884549 0.000000 0.000000 0.000000
8.953490 64.439414 326.102921 -2.914023 3.024666 25.795729 -0.457243 0.341195 -25.838848 -0.127962 -0.182966 -0.165383 8.169377 4.319988 1.758175 0.000000 0.000000 0.000000 -0.462740 1.890978 -0.425154 -4.389839 -8.734582 1.101537 4.510554 -14.466423 -2.895708 -8.375729 25.937043 7.874059 0.000000 0.000000 0.000000 0.000000 0.000000 0.000000 41.629801 -12.912128 2.149642 -62.799089 -30.428502 10.929543 -33.828606 82.717854 37.443150 30.169392 -22.527999 22.627540 0.000000 0.000000 0.000000 0.000000 0.000000 0.000000 -9.312962 7.308141 -28.132617 14.952692 -12.561923 2.265616 -7.536975 17.444391 10.566093 0.000000 0.000000 0.000000 -2.466505 -0.361207 -26.310343 -1.702628 -10.292075 -3.362872 5.298668 8.662356 6.420404 0.000000 0.000000 0.000000
9.036674 64.381131 326.227054 -2.912558 2.766940 26.711279 -0.419393 0.349603 -26.758246 -0.107471 -0.233200 -0.163440 7.573319 5.037097 1.776541 0.000000 0.000000 0.000000 -0.661262 2.016519 -0.432514 -4.430834 -9.711224 1.007093 2.618259 -27.372338 -4.826931 -9.337412 44.942859 12.894291 0.000000 0.000000 0.000000 0.000000 0.000000 0.000000 40.921789 -12.212237 1.840350 -63.239807 -31.367040 10.338204 -110.238010 85.425315 115.340899 37.863815 -33.851026 28.458586 0.000000 0.000000 0.000000 0.000000 0.000000 0.000000 -9.355833 7.743480 -29.081692 15.157006 -12.118124 2.377340 -7.616934 16.963787 10.827848 0.000000 0.000000 0.000000 -2.562536 -0.409118 -27.374065 -1.712869 -9.636207 -3.152997 5.322325 8.289430 6.757457 0.000000 0.000000 0.000000
